<?xml version="1.0" encoding="utf-8"?>
<!-- Generator: Adobe Illustrator 27.3.1, SVG Export Plug-In . SVG Version: 6.00 Build 0)  -->
<svg version="1.1" id="Layer_1" xmlns="http://www.w3.org/2000/svg" xmlns:xlink="http://www.w3.org/1999/xlink" x="0px" y="0px"
	 viewBox="0 0 262.4 164" style="enable-background:new 0 0 262.4 164;" xml:space="preserve">
<style type="text/css">
	.st0{fill:#FFFFFF;}
</style>
<rect x="77.9" y="91.9" class="st0" width="106.4" height="3"/>
<polygon class="st0" points="114.9,86.9 133.2,49.7 139.8,86.9 151.6,86.9 137.6,17.7 114.9,64.6 92.1,17.7 77.9,86.9 90.3,86.9 
	96.6,47.3 "/>
<path class="st0" d="M173.6,17.7v50.8c0,0,1.1,14.1-13.5,2.3l-7,7.7c0,0,6.9,8.3,14.9,8.3c9.7,0,16.3-6.6,16.3-18.1v-51
	C184.3,17.7,173.6,17.7,173.6,17.7z"/>
<g>
	<path class="st0" d="M2.8,104.8h3.1l2,5.6c0.3,0.7,0.5,1.5,0.7,2.3h0.1c0.2-0.8,0.5-1.6,0.7-2.3l2-5.6h3.1v12.5h-2.6v-4.6
		c0-1.2,0.2-3,0.4-4.2h-0.1l-1,2.9l-1.8,4.8H7.8L6,111.4l-1-2.9l0,0c0.1,1.2,0.4,3,0.4,4.2v4.6H2.8C2.8,117.3,2.8,104.8,2.8,104.8z"
		/>
	<path class="st0" d="M20.5,104.8h3.4l3.9,12.5h-3l-1.6-6.3c-0.4-1.2-0.7-2.7-1-4h-0.1c-0.3,1.3-0.6,2.8-1,4l-1.6,6.3h-2.9
		L20.5,104.8L20.5,104.8z M19.2,112.1h6v2.2h-6V112.1z"/>
	<path class="st0" d="M31,107.1h-3.4v-2.4h9.7v2.4h-3.4v10.1H31V107.1L31,107.1z"/>
	<path class="st0" d="M42.5,107.1H39v-2.4h9.7v2.4h-3.4v10.1h-2.8V107.1L42.5,107.1z"/>
	<path class="st0" d="M55,115.2l1.9-1.4c0.5,0.9,1.1,1.2,1.7,1.2c1,0,1.5-0.5,1.5-2.2v-8.1H63v8.3c0,2.4-1.2,4.4-4,4.4
		C57.1,117.5,55.8,116.7,55,115.2L55,115.2z"/>
	<path class="st0" d="M66.1,111c0-4.1,2.3-6.4,5.7-6.4s5.7,2.4,5.7,6.4s-2.3,6.5-5.7,6.5S66.1,115,66.1,111z M74.5,111
		c0-2.5-1.1-4-2.8-4s-2.8,1.5-2.8,4s1.1,4.1,2.8,4.1S74.5,113.5,74.5,111z"/>
	<path class="st0" d="M80.6,104.8h2.9l3.3,6.2l1.2,2.7l0,0c-0.1-1.3-0.4-3.1-0.4-4.5v-4.4h2.7v12.5h-2.9l-3.3-6.2l-1.2-2.7h-0.1
		c0.1,1.4,0.4,3.1,0.4,4.5v4.4h-2.7L80.6,104.8L80.6,104.8z"/>
	<path class="st0" d="M94.1,104.8h7.8v2.4h-5v2.5h4.3v2.4h-4.3v2.9h5.2v2.4h-8V104.8L94.1,104.8L94.1,104.8z"/>
	<path class="st0" d="M104.6,115.7l1.6-1.9c0.9,0.8,2,1.3,3.1,1.3c1.2,0,1.8-0.5,1.8-1.2c0-0.8-0.7-1-1.8-1.5l-1.6-0.7
		c-1.3-0.5-2.5-1.6-2.5-3.4c0-2.1,1.8-3.7,4.4-3.7c1.4,0,2.9,0.6,4,1.6l-1.4,1.8c-0.8-0.6-1.6-1-2.6-1s-1.6,0.4-1.6,1.1
		c0,0.8,0.8,1,1.9,1.5l1.6,0.6c1.5,0.6,2.5,1.6,2.5,3.4c0,2.1-1.7,3.9-4.7,3.9C107.6,117.5,105.9,116.9,104.6,115.7L104.6,115.7
		L104.6,115.7z"/>
	<path class="st0" d="M120.9,111c0-4.1,2.3-6.4,5.7-6.4c3.4,0,5.7,2.4,5.7,6.4s-2.3,6.5-5.7,6.5S120.9,115,120.9,111z M129.3,111
		c0-2.5-1.1-4-2.8-4s-2.8,1.5-2.8,4s1.1,4.1,2.8,4.1C128.3,115.1,129.3,113.5,129.3,111z"/>
	<path class="st0" d="M135.4,104.8h4.5c2.6,0,4.8,0.9,4.8,3.9s-2.2,4.1-4.8,4.1h-1.7v4.5h-2.8V104.8L135.4,104.8z M139.6,110.5
		c1.5,0,2.3-0.6,2.3-1.9s-0.8-1.6-2.3-1.6h-1.4v3.5H139.6z M139.3,112l1.9-1.8l4,7H142L139.3,112L139.3,112z"/>
	<path class="st0" d="M150,107.1h-3.4v-2.4h9.7v2.4h-3.4v10.1H150V107.1L150,107.1z"/>
	<path class="st0" d="M159,104.8h2.8v4.8h4.3v-4.8h2.8v12.5h-2.8v-5.2h-4.3v5.2H159V104.8z"/>
	<path class="st0" d="M172.1,111c0-4.1,2.3-6.4,5.7-6.4s5.7,2.4,5.7,6.4s-2.3,6.5-5.7,6.5S172.1,115,172.1,111z M180.6,111
		c0-2.5-1.1-4-2.8-4s-2.8,1.5-2.8,4s1.1,4.1,2.8,4.1S180.6,113.5,180.6,111z"/>
	<path class="st0" d="M186.6,104.8h4.3c2.8,0,5,1,5,4s-2.2,4.2-4.9,4.2h-1.5v4.2h-2.8L186.6,104.8L186.6,104.8z M190.8,110.8
		c1.6,0,2.3-0.7,2.3-2s-0.8-1.8-2.4-1.8h-1.3v3.8H190.8z"/>
	<path class="st0" d="M200.2,104.8h3.4l3.9,12.5h-3l-1.6-6.3c-0.4-1.2-0.7-2.7-1-4h-0.1c-0.3,1.3-0.6,2.8-1,4l-1.6,6.3h-2.9
		L200.2,104.8L200.2,104.8L200.2,104.8z M198.9,112.1h6v2.2h-6V112.1z"/>
	<path class="st0" d="M209.5,104.8h7.8v2.4h-5v2.5h4.2v2.4h-4.2v2.9h5.2v2.4h-8V104.8L209.5,104.8L209.5,104.8z"/>
	<path class="st0" d="M220.8,104.8h3.5c3.8,0,6.3,1.9,6.3,6.2s-2.5,6.3-6.1,6.3h-3.7V104.8z M224.1,115c2.1,0,3.6-1,3.6-4
		s-1.4-3.9-3.6-3.9h-0.5v7.9H224.1z"/>
	<path class="st0" d="M233.7,104.8h2.8v12.5h-2.8V104.8z"/>
	<path class="st0" d="M239.7,111.1c0-4.1,2.7-6.5,5.9-6.5c1.6,0,2.9,0.8,3.8,1.6l-1.5,1.8c-0.6-0.6-1.3-1-2.2-1
		c-1.7,0-3.1,1.5-3.1,4s1.2,4.1,3,4.1c1,0,1.8-0.5,2.4-1.2l1.5,1.8c-1,1.2-2.4,1.8-4,1.8C242.4,117.5,239.7,115.3,239.7,111.1
		L239.7,111.1L239.7,111.1z"/>
	<path class="st0" d="M250.9,115.7l1.6-1.9c0.9,0.8,2,1.3,3.1,1.3c1.2,0,1.7-0.5,1.7-1.2c0-0.8-0.7-1-1.8-1.5l-1.6-0.7
		c-1.3-0.5-2.5-1.6-2.5-3.4c0-2.1,1.9-3.7,4.4-3.7c1.4,0,2.9,0.6,4,1.6l-1.4,1.8c-0.8-0.6-1.6-1-2.6-1s-1.6,0.4-1.6,1.1
		c0,0.8,0.8,1,1.9,1.5l1.6,0.6c1.5,0.6,2.5,1.6,2.5,3.4c0,2.1-1.7,3.9-4.7,3.9C253.9,117.5,252.2,116.9,250.9,115.7L250.9,115.7
		L250.9,115.7z"/>
</g>
<g>
	<path class="st0" d="M62,127.5h2.3v3.9h3.5v-3.9h2.3v10.1h-2.3v-4.2h-3.5v4.2H62C62,137.6,62,127.5,62,127.5z"/>
	<path class="st0" d="M72,127.6c0-0.7,0.6-1.2,1.3-1.2s1.3,0.5,1.3,1.2c0,0.7-0.6,1.2-1.3,1.2S72,128.3,72,127.6z M72.2,130h2.3v7.7
		h-2.3V130z"/>
	<path class="st0" d="M76.3,130h1.9l0.2,0.8h0.1c0.6-0.5,1.4-0.9,2.2-0.9c1.9,0,3,1.5,3,3.9c0,2.6-1.6,4.2-3.2,4.2
		c-0.7,0-1.3-0.3-1.8-0.8l0.1,1.2v2.3h-2.3L76.3,130L76.3,130z M81.2,133.7c0-1.4-0.4-2.1-1.3-2.1c-0.5,0-0.9,0.2-1.3,0.7v3.2
		c0.4,0.4,0.8,0.5,1.2,0.5C80.6,136,81.2,135.3,81.2,133.7L81.2,133.7z"/>
	<path class="st0" d="M90.7,131.4c0-0.8,0.6-1.4,1.4-1.4s1.4,0.6,1.4,1.4s-0.6,1.4-1.4,1.4S90.7,132.2,90.7,131.4z M90.7,136.4
		c0-0.8,0.6-1.4,1.4-1.4s1.4,0.6,1.4,1.4s-0.6,1.4-1.4,1.4S90.7,137.2,90.7,136.4z"/>
	<path class="st0" d="M101.2,127.5h2.3v4.1h0.1l3-4.1h2.5l-3.1,4l3.6,6.1h-2.5l-2.5-4.3l-1.2,1.6v2.7h-2.3L101.2,127.5L101.2,127.5z
		"/>
	<path class="st0" d="M110.4,130h1.9l0.2,1h0.1c0.7-0.6,1.4-1.2,2.5-1.2c1.7,0,2.4,1.2,2.4,3.1v4.8h-2.3v-4.5c0-1.1-0.3-1.5-1-1.5
		c-0.6,0-0.9,0.3-1.4,0.8v5.2h-2.3L110.4,130L110.4,130L110.4,130z"/>
	<path class="st0" d="M118.7,133.8c0-2.5,1.8-4.1,3.6-4.1c2.2,0,3.3,1.6,3.3,3.7c0,0.4-0.1,0.8-0.1,1h-4.6c0.2,1.1,1,1.6,2,1.6
		c0.6,0,1.1-0.2,1.7-0.5l0.8,1.4c-0.8,0.6-1.8,0.9-2.7,0.9C120.4,137.9,118.7,136.4,118.7,133.8L118.7,133.8L118.7,133.8z
		 M123.6,133c0-0.9-0.4-1.5-1.3-1.5c-0.7,0-1.3,0.5-1.5,1.5H123.6z"/>
	<path class="st0" d="M126.5,133.8c0-2.5,1.8-4.1,3.6-4.1c2.2,0,3.3,1.6,3.3,3.7c0,0.4-0.1,0.8-0.1,1h-4.6c0.2,1.1,1,1.6,2,1.6
		c0.6,0,1.1-0.2,1.7-0.5l0.8,1.4c-0.8,0.6-1.8,0.9-2.7,0.9C128.2,137.9,126.5,136.4,126.5,133.8L126.5,133.8L126.5,133.8z
		 M131.5,133c0-0.9-0.4-1.5-1.3-1.5c-0.7,0-1.4,0.5-1.5,1.5H131.5z"/>
	<path class="st0" d="M140.6,131.4c0-0.8,0.6-1.4,1.4-1.4s1.4,0.6,1.4,1.4s-0.6,1.4-1.4,1.4S140.6,132.2,140.6,131.4z M140.6,136.4
		c0-0.8,0.6-1.4,1.4-1.4s1.4,0.6,1.4,1.4s-0.6,1.4-1.4,1.4S140.6,137.2,140.6,136.4z"/>
	<path class="st0" d="M153.2,129.5h-2.8v-1.9h7.9v1.9h-2.8v8.2h-2.3L153.2,129.5L153.2,129.5L153.2,129.5z"/>
	<path class="st0" d="M158.8,130h1.9l0.2,1.4h0.1c0.6-1,1.4-1.5,2.2-1.5c0.4,0,0.7,0.1,0.9,0.2l-0.4,2c-0.3-0.1-0.5-0.1-0.8-0.1
		c-0.6,0-1.3,0.4-1.7,1.4v4.5h-2.3L158.8,130L158.8,130L158.8,130z"/>
	<path class="st0" d="M164,135.5c0-1.6,1.3-2.5,4.3-2.8c-0.1-0.7-0.4-1.1-1.2-1.1c-0.6,0-1.3,0.3-2,0.7l-0.8-1.5c1-0.6,2.1-1,3.3-1
		c2,0,3.1,1.1,3.1,3.5v4.4h-1.9l-0.2-0.8h-0.1c-0.6,0.6-1.4,1-2.2,1C164.9,137.9,164,136.8,164,135.5L164,135.5L164,135.5z
		 M168.4,135.4V134c-1.6,0.2-2.2,0.7-2.2,1.3c0,0.5,0.3,0.7,0.9,0.7S168,135.8,168.4,135.4L168.4,135.4z"/>
	<path class="st0" d="M172.3,134.7v-4.8h2.3v4.5c0,1.1,0.3,1.5,1,1.5c0.6,0,0.9-0.2,1.4-0.9v-5.1h2.3v7.7h-1.9l-0.2-1.1h-0.1
		c-0.6,0.8-1.4,1.3-2.4,1.3C173.1,137.9,172.3,136.7,172.3,134.7L172.3,134.7L172.3,134.7z"/>
	<path class="st0" d="M181.1,130h1.9l0.2,1h0.1c0.6-0.6,1.3-1.2,2.3-1.2c1.1,0,1.7,0.5,2.1,1.3c0.7-0.7,1.4-1.3,2.4-1.3
		c1.7,0,2.4,1.2,2.4,3.1v4.8h-2.3v-4.5c0-1.1-0.3-1.5-0.9-1.5c-0.4,0-0.8,0.2-1.3,0.8v5.2h-2.3v-4.5c0-1.1-0.3-1.5-0.9-1.5
		c-0.4,0-0.8,0.2-1.3,0.8v5.2h-2.3L181.1,130L181.1,130L181.1,130z"/>
	<path class="st0" d="M193.8,135.5c0-1.6,1.3-2.5,4.3-2.8c-0.1-0.7-0.4-1.1-1.2-1.1c-0.6,0-1.3,0.3-2,0.7l-0.8-1.5
		c1-0.6,2.1-1,3.3-1c2,0,3.1,1.1,3.1,3.5v4.4h-1.9l-0.2-0.8h-0.1c-0.6,0.6-1.4,1-2.2,1C194.7,137.9,193.8,136.8,193.8,135.5
		L193.8,135.5L193.8,135.5z M198.2,135.4V134c-1.6,0.2-2.2,0.7-2.2,1.3c0,0.5,0.3,0.7,0.9,0.7S197.8,135.8,198.2,135.4L198.2,135.4z
		"/>
</g>
</svg>
