<?xml version="1.0" encoding="UTF-8"?>
<svg id="Layer_1" data-name="Layer 1" xmlns="http://www.w3.org/2000/svg" viewBox="0 0 300 185.22">
  <defs>
    <style>
      .cls-1 {
        fill: #231f20;
      }
    </style>
  </defs>
  <rect class="cls-1" x="98.97" y="103.43" width="106.41" height="3"/>
  <polygon class="cls-1" points="135.91 98.46 154.26 61.3 160.9 98.46 172.61 98.46 158.65 29.32 135.91 76.16 113.16 29.32 98.97 98.46 111.36 98.46 117.66 58.82 135.91 98.46"/>
  <path class="cls-1" d="m194.68,29.32v50.78s1.1,14.1-13.51,2.31l-6.98,7.71s6.93,8.33,14.92,8.33c9.68,0,16.27-6.64,16.27-18.13V29.32h-10.7Z"/>
  <g>
    <path class="cls-1" d="m23.88,116.35h3.08l2.02,5.55c.25.74.47,1.54.72,2.3h.08c.25-.77.46-1.57.71-2.3l1.96-5.55h3.08v12.48h-2.57v-4.58c0-1.22.23-3.03.36-4.24h-.08l-1.02,2.95-1.76,4.78h-1.57l-1.77-4.78-1-2.95h-.08c.13,1.21.36,3.02.36,4.24v4.58h-2.53v-12.48Z"/>
    <path class="cls-1" d="m41.59,116.35h3.38l3.92,12.48h-2.99l-1.63-6.32c-.35-1.25-.68-2.72-1.01-4.03h-.08c-.3,1.32-.64,2.78-.98,4.03l-1.64,6.32h-2.88l3.92-12.48Zm-1.34,7.32h6.01v2.19h-6.01v-2.19Z"/>
    <path class="cls-1" d="m52.09,118.72h-3.44v-2.37h9.69v2.37h-3.44v10.11h-2.82v-10.11Z"/>
    <path class="cls-1" d="m63.54,118.72h-3.44v-2.37h9.69v2.37h-3.44v10.11h-2.82v-10.11Z"/>
    <path class="cls-1" d="m76.01,126.8l1.92-1.43c.46.86,1.1,1.25,1.74,1.25,1.01,0,1.55-.52,1.55-2.18v-8.09h2.82v8.33c0,2.4-1.25,4.38-4,4.38-1.91,0-3.16-.75-4.03-2.26Z"/>
    <path class="cls-1" d="m87.13,122.53c0-4.08,2.3-6.42,5.67-6.42s5.67,2.35,5.67,6.42-2.3,6.52-5.67,6.52-5.67-2.45-5.67-6.52Zm8.45,0c0-2.5-1.07-3.98-2.78-3.98s-2.78,1.48-2.78,3.98,1.07,4.09,2.78,4.09,2.78-1.58,2.78-4.09Z"/>
    <path class="cls-1" d="m101.62,116.35h2.89l3.26,6.21,1.23,2.74h.08c-.13-1.32-.36-3.07-.36-4.54v-4.41h2.69v12.48h-2.89l-3.26-6.22-1.23-2.73h-.08c.13,1.38.36,3.05.36,4.52v4.43h-2.69v-12.48Z"/>
    <path class="cls-1" d="m115.15,116.35h7.82v2.37h-5v2.51h4.26v2.37h-4.26v2.88h5.19v2.37h-8.01v-12.48Z"/>
    <path class="cls-1" d="m125.64,127.25l1.62-1.94c.89.77,2.04,1.3,3.07,1.3,1.18,0,1.75-.46,1.75-1.2,0-.79-.71-1.04-1.8-1.49l-1.62-.69c-1.29-.53-2.52-1.59-2.52-3.4,0-2.07,1.85-3.72,4.45-3.72,1.44,0,2.94.57,4.02,1.64l-1.42,1.78c-.82-.63-1.6-.98-2.59-.98s-1.59.41-1.59,1.12c0,.77.82,1.04,1.91,1.48l1.59.64c1.52.62,2.48,1.63,2.48,3.4,0,2.07-1.73,3.87-4.7,3.87-1.62,0-3.35-.61-4.62-1.8Z"/>
    <path class="cls-1" d="m141.94,122.53c0-4.08,2.3-6.42,5.67-6.42s5.67,2.35,5.67,6.42-2.3,6.52-5.67,6.52-5.67-2.45-5.67-6.52Zm8.45,0c0-2.5-1.07-3.98-2.78-3.98s-2.78,1.48-2.78,3.98,1.07,4.09,2.78,4.09,2.78-1.58,2.78-4.09Z"/>
    <path class="cls-1" d="m156.42,116.35h4.49c2.65,0,4.82.92,4.82,3.89s-2.17,4.1-4.82,4.1h-1.67v4.49h-2.82v-12.48Zm4.26,5.75c1.48,0,2.28-.64,2.28-1.86s-.8-1.65-2.28-1.65h-1.44v3.51h1.44Zm-.29,1.5l1.95-1.81,3.98,7.04h-3.16l-2.78-5.24Z"/>
    <path class="cls-1" d="m171.06,118.72h-3.44v-2.37h9.69v2.37h-3.43v10.11h-2.82v-10.11Z"/>
    <path class="cls-1" d="m180.07,116.35h2.82v4.81h4.31v-4.81h2.82v12.48h-2.82v-5.21h-4.31v5.21h-2.82v-12.48Z"/>
    <path class="cls-1" d="m193.18,122.53c0-4.08,2.3-6.42,5.67-6.42s5.67,2.35,5.67,6.42-2.3,6.52-5.67,6.52-5.67-2.45-5.67-6.52Zm8.45,0c0-2.5-1.08-3.98-2.78-3.98s-2.78,1.48-2.78,3.98,1.07,4.09,2.78,4.09,2.78-1.58,2.78-4.09Z"/>
    <path class="cls-1" d="m207.67,116.35h4.29c2.75,0,4.96.98,4.96,4.02s-2.24,4.23-4.88,4.23h-1.54v4.23h-2.82v-12.48Zm4.2,6.01c1.55,0,2.29-.69,2.29-1.99s-.84-1.78-2.36-1.78h-1.3v3.77h1.38Z"/>
    <path class="cls-1" d="m221.25,116.35h3.38l3.92,12.48h-2.99l-1.63-6.32c-.35-1.25-.68-2.72-1.01-4.03h-.08c-.3,1.32-.64,2.78-.98,4.03l-1.64,6.32h-2.88l3.92-12.48Zm-1.34,7.32h6.01v2.19h-6.01v-2.19Z"/>
    <path class="cls-1" d="m230.54,116.35h7.82v2.37h-5v2.51h4.25v2.37h-4.25v2.88h5.19v2.37h-8.01v-12.48Z"/>
    <path class="cls-1" d="m241.84,116.35h3.53c3.81,0,6.27,1.9,6.27,6.19s-2.46,6.29-6.11,6.29h-3.69v-12.48Zm3.36,10.21c2.12,0,3.55-1.04,3.55-4.02s-1.43-3.91-3.55-3.91h-.54v7.94h.54Z"/>
    <path class="cls-1" d="m254.8,116.35h2.82v12.48h-2.82v-12.48Z"/>
    <path class="cls-1" d="m260.77,122.66c0-4.14,2.74-6.54,5.89-6.54,1.61,0,2.91.76,3.75,1.62l-1.49,1.81c-.63-.58-1.3-.99-2.2-.99-1.71,0-3.06,1.51-3.06,4.01s1.19,4.06,3.02,4.06c1.02,0,1.83-.5,2.44-1.17l1.49,1.77c-1.04,1.21-2.42,1.83-4.03,1.83-3.17,0-5.81-2.19-5.81-6.4Z"/>
    <path class="cls-1" d="m271.97,127.25l1.62-1.94c.89.77,2.04,1.3,3.07,1.3,1.18,0,1.75-.46,1.75-1.2,0-.79-.71-1.04-1.8-1.49l-1.62-.69c-1.29-.53-2.52-1.59-2.52-3.4,0-2.07,1.85-3.72,4.45-3.72,1.44,0,2.94.57,4.01,1.64l-1.42,1.78c-.82-.63-1.6-.98-2.59-.98s-1.59.41-1.59,1.12c0,.77.82,1.04,1.91,1.48l1.59.64c1.52.62,2.48,1.63,2.48,3.4,0,2.07-1.73,3.87-4.7,3.87-1.62,0-3.35-.61-4.62-1.8Z"/>
  </g>
  <g>
    <path class="cls-1" d="m83.1,139.11h2.29v3.91h3.5v-3.91h2.29v10.13h-2.29v-4.23h-3.5v4.23h-2.29v-10.13Z"/>
    <path class="cls-1" d="m93.03,139.21c0-.7.56-1.2,1.32-1.2s1.32.49,1.32,1.2-.56,1.19-1.32,1.19-1.32-.5-1.32-1.19Zm.18,2.32h2.29v7.71h-2.29v-7.71Z"/>
    <path class="cls-1" d="m97.31,141.53h1.86l.16.76h.06c.61-.54,1.39-.95,2.2-.95,1.87,0,3.01,1.54,3.01,3.92,0,2.65-1.58,4.17-3.25,4.17-.66,0-1.29-.29-1.84-.8l.08,1.22v2.26h-2.29v-10.58Zm4.95,3.76c0-1.38-.43-2.08-1.34-2.08-.47,0-.87.21-1.33.69v3.17c.42.36.84.49,1.23.49.8,0,1.44-.67,1.44-2.27Z"/>
    <path class="cls-1" d="m111.71,142.95c0-.81.59-1.44,1.38-1.44s1.38.63,1.38,1.44-.59,1.44-1.38,1.44-1.38-.63-1.38-1.44Zm0,5.04c0-.81.59-1.44,1.38-1.44s1.38.63,1.38,1.44-.59,1.44-1.38,1.44-1.38-.63-1.38-1.44Z"/>
    <path class="cls-1" d="m122.28,139.11h2.29v4.14h.06l3.02-4.14h2.52l-3.07,4.04,3.63,6.09h-2.51l-2.46-4.28-1.18,1.57v2.72h-2.29v-10.13Z"/>
    <path class="cls-1" d="m131.45,141.53h1.86l.16.98h.06c.65-.62,1.43-1.16,2.48-1.16,1.68,0,2.39,1.18,2.39,3.11v4.79h-2.29v-4.5c0-1.11-.3-1.46-.96-1.46-.57,0-.93.27-1.43.75v5.2h-2.29v-7.71Z"/>
    <path class="cls-1" d="m139.71,145.39c0-2.5,1.79-4.05,3.64-4.05,2.2,0,3.29,1.6,3.29,3.7,0,.41-.05.82-.1,1.01h-4.61c.21,1.12.97,1.63,2,1.63.58,0,1.11-.18,1.67-.5l.76,1.38c-.79.55-1.82.87-2.74.87-2.2,0-3.9-1.49-3.9-4.04Zm4.97-.84c0-.85-.37-1.46-1.28-1.46-.72,0-1.35.48-1.5,1.46h2.78Z"/>
    <path class="cls-1" d="m147.58,145.39c0-2.5,1.79-4.05,3.64-4.05,2.2,0,3.29,1.6,3.29,3.7,0,.41-.05.82-.1,1.01h-4.61c.21,1.12.97,1.63,2,1.63.58,0,1.11-.18,1.67-.5l.76,1.38c-.79.55-1.82.87-2.74.87-2.2,0-3.9-1.49-3.9-4.04Zm4.97-.84c0-.85-.37-1.46-1.28-1.46-.72,0-1.35.48-1.5,1.46h2.78Z"/>
    <path class="cls-1" d="m161.7,142.95c0-.81.59-1.44,1.38-1.44s1.38.63,1.38,1.44-.59,1.44-1.38,1.44-1.38-.63-1.38-1.44Zm0,5.04c0-.81.59-1.44,1.38-1.44s1.38.63,1.38,1.44-.59,1.44-1.38,1.44-1.38-.63-1.38-1.44Z"/>
    <path class="cls-1" d="m174.25,141.03h-2.79v-1.92h7.87v1.92h-2.79v8.21h-2.29v-8.21Z"/>
    <path class="cls-1" d="m179.89,141.53h1.86l.17,1.35h.06c.56-1.03,1.41-1.53,2.19-1.53.44,0,.7.06.92.16l-.38,1.97c-.27-.07-.5-.12-.83-.12-.58,0-1.29.37-1.7,1.43v4.47h-2.29v-7.71Z"/>
    <path class="cls-1" d="m185.1,147.1c0-1.62,1.29-2.5,4.34-2.83-.05-.67-.38-1.12-1.22-1.12-.65,0-1.29.27-2.04.7l-.81-1.5c.98-.6,2.08-1.01,3.29-1.01,1.97,0,3.06,1.13,3.06,3.49v4.41h-1.87l-.16-.79h-.06c-.65.57-1.38.98-2.24.98-1.41,0-2.3-1.03-2.3-2.33Zm4.34-.1v-1.35c-1.62.22-2.16.68-2.16,1.27,0,.5.34.74.88.74s.87-.26,1.27-.66Z"/>
    <path class="cls-1" d="m193.39,146.32v-4.79h2.29v4.5c0,1.11.3,1.46.96,1.46.57,0,.92-.24,1.37-.85v-5.1h2.29v7.71h-1.86l-.17-1.07h-.06c-.64.77-1.37,1.26-2.42,1.26-1.68,0-2.39-1.18-2.39-3.11Z"/>
    <path class="cls-1" d="m202.11,141.53h1.87l.16.99h.06c.63-.64,1.32-1.18,2.34-1.18,1.08,0,1.74.47,2.13,1.3.68-.71,1.4-1.3,2.42-1.3,1.67,0,2.41,1.18,2.41,3.11v4.79h-2.29v-4.5c0-1.11-.3-1.46-.95-1.46-.39,0-.83.24-1.31.75v5.2h-2.29v-4.5c0-1.11-.3-1.46-.95-1.46-.38,0-.83.24-1.31.75v5.2h-2.29v-7.71Z"/>
    <path class="cls-1" d="m214.9,147.1c0-1.62,1.29-2.5,4.34-2.83-.05-.67-.38-1.12-1.22-1.12-.65,0-1.29.27-2.04.7l-.81-1.5c.98-.6,2.08-1.01,3.29-1.01,1.97,0,3.06,1.13,3.06,3.49v4.41h-1.87l-.16-.79h-.06c-.65.57-1.38.98-2.24.98-1.41,0-2.3-1.03-2.3-2.33Zm4.34-.1v-1.35c-1.62.22-2.16.68-2.16,1.27,0,.5.34.74.88.74s.87-.26,1.27-.66Z"/>
  </g>
</svg>