<?xml version="1.0" encoding="UTF-8"?>
<svg id="Layer_1" data-name="Layer 1" xmlns="http://www.w3.org/2000/svg" viewBox="0 0 262.4 237.6">
  <defs>
    <style>
      .cls-1 {
        fill: #fff;
      }
    </style>
  </defs>
  <rect class="cls-1" x="77.9" y="123.7" width="106.4" height="3"/>
  <polygon class="cls-1" points="114.9 118.7 133.2 81.5 139.8 118.7 151.6 118.7 137.6 49.5 114.9 96.4 92.1 49.5 77.9 118.7 90.3 118.7 96.6 79.1 114.9 118.7"/>
  <path class="cls-1" d="m173.6,49.5v50.8s1.1,14.1-13.5,2.3l-7,7.7s6.9,8.3,14.9,8.3c9.7,0,16.3-6.6,16.3-18.1v-51h-10.7Z"/>
  <g>
    <path class="cls-1" d="m2.8,136.6h3.1l2,5.6c.3.7.5,1.5.7,2.3h.1c.2-.8.5-1.6.7-2.3l2-5.6h3.1v12.5h-2.6v-4.6c0-1.2.2-3,.4-4.2h-.1l-1,2.9-1.8,4.8h-1.6l-1.8-4.8-1-2.9h0c.1,1.2.4,3,.4,4.2v4.6h-2.6v-12.5Z"/>
    <path class="cls-1" d="m20.5,136.6h3.4l3.9,12.5h-3l-1.6-6.3c-.4-1.2-.7-2.7-1-4h-.1c-.3,1.3-.6,2.8-1,4l-1.6,6.3h-2.9l3.9-12.5h0Zm-1.3,7.3h6v2.2h-6v-2.2Z"/>
    <path class="cls-1" d="m31,138.9h-3.4v-2.4h9.7v2.4h-3.4v10.1h-2.9v-10.1h0Z"/>
    <path class="cls-1" d="m42.5,138.9h-3.5v-2.4h9.7v2.4h-3.4v10.1h-2.8v-10.1h0Z"/>
    <path class="cls-1" d="m55,147l1.9-1.4c.5.9,1.1,1.2,1.7,1.2,1,0,1.5-.5,1.5-2.2v-8.1h2.9v8.3c0,2.4-1.2,4.4-4,4.4-1.9.1-3.2-.7-4-2.2h0Z"/>
    <path class="cls-1" d="m66.1,142.8c0-4.1,2.3-6.4,5.7-6.4s5.7,2.4,5.7,6.4-2.3,6.5-5.7,6.5-5.7-2.5-5.7-6.5Zm8.4,0c0-2.5-1.1-4-2.8-4s-2.8,1.5-2.8,4,1.1,4.1,2.8,4.1,2.8-1.6,2.8-4.1Z"/>
    <path class="cls-1" d="m80.6,136.6h2.9l3.3,6.2,1.2,2.7h0c-.1-1.3-.4-3.1-.4-4.5v-4.4h2.7v12.5h-2.9l-3.3-6.2-1.2-2.7h-.1c.1,1.4.4,3.1.4,4.5v4.4h-2.7v-12.5h.1Z"/>
    <path class="cls-1" d="m94.1,136.6h7.8v2.4h-5v2.5h4.3v2.4h-4.3v2.9h5.2v2.4h-8v-12.6h0Z"/>
    <path class="cls-1" d="m104.6,147.5l1.6-1.9c.9.8,2,1.3,3.1,1.3,1.2,0,1.8-.5,1.8-1.2,0-.8-.7-1-1.8-1.5l-1.6-.7c-1.3-.5-2.5-1.6-2.5-3.4,0-2.1,1.8-3.7,4.4-3.7,1.4,0,2.9.6,4,1.6l-1.4,1.8c-.8-.6-1.6-1-2.6-1s-1.6.4-1.6,1.1c0,.8.8,1,1.9,1.5l1.6.6c1.5.6,2.5,1.6,2.5,3.4,0,2.1-1.7,3.9-4.7,3.9-1.7,0-3.4-.6-4.7-1.8h0Z"/>
    <path class="cls-1" d="m120.9,142.8c0-4.1,2.3-6.4,5.7-6.4s5.7,2.4,5.7,6.4-2.3,6.5-5.7,6.5-5.7-2.5-5.7-6.5Zm8.4,0c0-2.5-1.1-4-2.8-4s-2.8,1.5-2.8,4,1.1,4.1,2.8,4.1c1.8,0,2.8-1.6,2.8-4.1Z"/>
    <path class="cls-1" d="m135.4,136.6h4.5c2.6,0,4.8.9,4.8,3.9s-2.2,4.1-4.8,4.1h-1.7v4.5h-2.8v-12.5h0Zm4.2,5.7c1.5,0,2.3-.6,2.3-1.9s-.8-1.6-2.3-1.6h-1.4v3.5h1.4Zm-.3,1.5l1.9-1.8,4,7h-3.2l-2.7-5.2h0Z"/>
    <path class="cls-1" d="m150,138.9h-3.4v-2.4h9.7v2.4h-3.4v10.1h-2.9v-10.1Z"/>
    <path class="cls-1" d="m159,136.6h2.8v4.8h4.3v-4.8h2.8v12.5h-2.8v-5.2h-4.3v5.2h-2.8v-12.5Z"/>
    <path class="cls-1" d="m172.1,142.8c0-4.1,2.3-6.4,5.7-6.4s5.7,2.4,5.7,6.4-2.3,6.5-5.7,6.5-5.7-2.5-5.7-6.5Zm8.5,0c0-2.5-1.1-4-2.8-4s-2.8,1.5-2.8,4,1.1,4.1,2.8,4.1,2.8-1.6,2.8-4.1Z"/>
    <path class="cls-1" d="m186.6,136.6h4.3c2.8,0,5,1,5,4s-2.2,4.2-4.9,4.2h-1.5v4.2h-2.8l-.1-12.4h0Zm4.2,6c1.6,0,2.3-.7,2.3-2s-.8-1.8-2.4-1.8h-1.3v3.8h1.4Z"/>
    <path class="cls-1" d="m200.2,136.6h3.4l3.9,12.5h-3l-1.6-6.3c-.4-1.2-.7-2.7-1-4h-.1c-.3,1.3-.6,2.8-1,4l-1.6,6.3h-2.9l3.9-12.5h0Zm-1.3,7.3h6v2.2h-6v-2.2Z"/>
    <path class="cls-1" d="m209.5,136.6h7.8v2.4h-5v2.5h4.2v2.4h-4.2v2.9h5.2v2.4h-8v-12.6h0Z"/>
    <path class="cls-1" d="m220.8,136.6h3.5c3.8,0,6.3,1.9,6.3,6.2s-2.5,6.3-6.1,6.3h-3.7v-12.5Zm3.3,10.2c2.1,0,3.6-1,3.6-4s-1.4-3.9-3.6-3.9h-.5v7.9h.5Z"/>
    <path class="cls-1" d="m233.7,136.6h2.8v12.5h-2.8v-12.5Z"/>
    <path class="cls-1" d="m239.7,142.9c0-4.1,2.7-6.5,5.9-6.5,1.6,0,2.9.8,3.8,1.6l-1.5,1.8c-.6-.6-1.3-1-2.2-1-1.7,0-3.1,1.5-3.1,4s1.2,4.1,3,4.1c1,0,1.8-.5,2.4-1.2l1.5,1.8c-1,1.2-2.4,1.8-4,1.8-3.1,0-5.8-2.2-5.8-6.4h0Z"/>
    <path class="cls-1" d="m250.9,147.5l1.6-1.9c.9.8,2,1.3,3.1,1.3,1.2,0,1.7-.5,1.7-1.2,0-.8-.7-1-1.8-1.5l-1.6-.7c-1.3-.5-2.5-1.6-2.5-3.4,0-2.1,1.9-3.7,4.4-3.7,1.4,0,2.9.6,4,1.6l-1.4,1.8c-.8-.6-1.6-1-2.6-1s-1.6.4-1.6,1.1c0,.8.8,1,1.9,1.5l1.6.6c1.5.6,2.5,1.6,2.5,3.4,0,2.1-1.7,3.9-4.7,3.9-1.6,0-3.3-.6-4.6-1.8h0Z"/>
  </g>
  <g>
    <path class="cls-1" d="m62,159.3h2.3v3.9h3.5v-3.9h2.3v10.1h-2.3v-4.2h-3.5v4.2h-2.3v-10.1Z"/>
    <path class="cls-1" d="m72,159.4c0-.7.6-1.2,1.3-1.2s1.3.5,1.3,1.2-.6,1.2-1.3,1.2-1.3-.5-1.3-1.2Zm.2,2.4h2.3v7.7h-2.3v-7.7Z"/>
    <path class="cls-1" d="m76.3,161.8h1.9l.2.8h.1c.6-.5,1.4-.9,2.2-.9,1.9,0,3,1.5,3,3.9,0,2.6-1.6,4.2-3.2,4.2-.7,0-1.3-.3-1.8-.8l.1,1.2v2.3h-2.3l-.2-10.7h0Zm4.9,3.7c0-1.4-.4-2.1-1.3-2.1-.5,0-.9.2-1.3.7v3.2c.4.4.8.5,1.2.5.8,0,1.4-.7,1.4-2.3Z"/>
    <path class="cls-1" d="m90.7,163.2c0-.8.6-1.4,1.4-1.4s1.4.6,1.4,1.4-.6,1.4-1.4,1.4-1.4-.6-1.4-1.4Zm0,5c0-.8.6-1.4,1.4-1.4s1.4.6,1.4,1.4-.6,1.4-1.4,1.4-1.4-.6-1.4-1.4Z"/>
    <path class="cls-1" d="m101.2,159.3h2.3v4.1h.1l3-4.1h2.5l-3.1,4,3.6,6.1h-2.5l-2.5-4.3-1.2,1.6v2.7h-2.3l.1-10.1h0Z"/>
    <path class="cls-1" d="m110.4,161.8h1.9l.2,1h.1c.7-.6,1.4-1.2,2.5-1.2,1.7,0,2.4,1.2,2.4,3.1v4.8h-2.3v-4.5c0-1.1-.3-1.5-1-1.5-.6,0-.9.3-1.4.8v5.2h-2.3l-.1-7.7h0Z"/>
    <path class="cls-1" d="m118.7,165.6c0-2.5,1.8-4.1,3.6-4.1,2.2,0,3.3,1.6,3.3,3.7,0,.4-.1.8-.1,1h-4.6c.2,1.1,1,1.6,2,1.6.6,0,1.1-.2,1.7-.5l.8,1.4c-.8.6-1.8.9-2.7.9-2.3.1-4-1.4-4-4h0Zm4.9-.8c0-.9-.4-1.5-1.3-1.5-.7,0-1.3.5-1.5,1.5h2.8Z"/>
    <path class="cls-1" d="m126.5,165.6c0-2.5,1.8-4.1,3.6-4.1,2.2,0,3.3,1.6,3.3,3.7,0,.4-.1.8-.1,1h-4.6c.2,1.1,1,1.6,2,1.6.6,0,1.1-.2,1.7-.5l.8,1.4c-.8.6-1.8.9-2.7.9-2.3.1-4-1.4-4-4h0Zm5-.8c0-.9-.4-1.5-1.3-1.5-.7,0-1.4.5-1.5,1.5h2.8Z"/>
    <path class="cls-1" d="m140.6,163.2c0-.8.6-1.4,1.4-1.4s1.4.6,1.4,1.4-.6,1.4-1.4,1.4-1.4-.6-1.4-1.4Zm0,5c0-.8.6-1.4,1.4-1.4s1.4.6,1.4,1.4-.6,1.4-1.4,1.4-1.4-.6-1.4-1.4Z"/>
    <path class="cls-1" d="m153.2,161.3h-2.8v-1.9h7.9v1.9h-2.8v8.2h-2.3v-8.2h0Z"/>
    <path class="cls-1" d="m158.8,161.8h1.9l.2,1.4h.1c.6-1,1.4-1.5,2.2-1.5.4,0,.7.1.9.2l-.4,2c-.3-.1-.5-.1-.8-.1-.6,0-1.3.4-1.7,1.4v4.5h-2.3v-7.9h-.1Z"/>
    <path class="cls-1" d="m164,167.3c0-1.6,1.3-2.5,4.3-2.8-.1-.7-.4-1.1-1.2-1.1-.6,0-1.3.3-2,.7l-.8-1.5c1-.6,2.1-1,3.3-1,2,0,3.1,1.1,3.1,3.5v4.4h-1.9l-.2-.8h-.1c-.6.6-1.4,1-2.2,1-1.4,0-2.3-1.1-2.3-2.4h0Zm4.4-.1v-1.4c-1.6.2-2.2.7-2.2,1.3,0,.5.3.7.9.7s.9-.2,1.3-.6h0Z"/>
    <path class="cls-1" d="m172.3,166.5v-4.8h2.3v4.5c0,1.1.3,1.5,1,1.5.6,0,.9-.2,1.4-.9v-5.1h2.3v7.7h-1.9l-.2-1.1h-.1c-.6.8-1.4,1.3-2.4,1.3-1.6.1-2.4-1.1-2.4-3.1h0Z"/>
    <path class="cls-1" d="m181.1,161.8h1.9l.2,1h.1c.6-.6,1.3-1.2,2.3-1.2,1.1,0,1.7.5,2.1,1.3.7-.7,1.4-1.3,2.4-1.3,1.7,0,2.4,1.2,2.4,3.1v4.8h-2.3v-4.5c0-1.1-.3-1.5-.9-1.5-.4,0-.8.2-1.3.8v5.2h-2.3v-4.5c0-1.1-.3-1.5-.9-1.5-.4,0-.8.2-1.3.8v5.2h-2.3l-.1-7.7h0Z"/>
    <path class="cls-1" d="m193.8,167.3c0-1.6,1.3-2.5,4.3-2.8-.1-.7-.4-1.1-1.2-1.1-.6,0-1.3.3-2,.7l-.8-1.5c1-.6,2.1-1,3.3-1,2,0,3.1,1.1,3.1,3.5v4.4h-1.9l-.2-.8h-.1c-.6.6-1.4,1-2.2,1-1.4,0-2.3-1.1-2.3-2.4h0Zm4.4-.1v-1.4c-1.6.2-2.2.7-2.2,1.3,0,.5.3.7.9.7s.9-.2,1.3-.6h0Z"/>
  </g>
</svg>